<svg xmlns="http://www.w3.org/2000/svg" viewBox="0 0 100 100" fill="none">
  <!-- Gradient Background -->
  <defs>
    <linearGradient id="bg-gradient" x1="0%" y1="0%" x2="100%" y2="100%">
      <stop offset="0%" stop-color="#2E5CFF" />
      <stop offset="100%" stop-color="#007AFF" />
    </linearGradient>
    <!-- Cake Frosting Gradient -->
    <linearGradient id="frosting-gradient" x1="0%" y1="0%" x2="0%" y2="100%">
      <stop offset="0%" stop-color="#FFFFFF" />
      <stop offset="100%" stop-color="#F0F0F0" />
    </linearGradient>
    <!-- Cake Base Gradient -->
    <linearGradient id="cake-gradient" x1="0%" y1="0%" x2="0%" y2="100%">
      <stop offset="0%" stop-color="#FFD6A5" />
      <stop offset="100%" stop-color="#EDAA70" />
    </linearGradient>
    <!-- Drop Shadow Filter -->
    <filter id="shadow" x="-10%" y="-10%" width="120%" height="120%">
      <feDropShadow dx="0" dy="2" stdDeviation="2" flood-opacity="0.3" />
    </filter>
  </defs>

  <!-- Background Circle with Gradient -->
  <circle cx="50" cy="50" r="48" fill="url(#bg-gradient)" stroke="#ffffff" stroke-width="2" />
  
  <!-- Cake Elements -->
  <g filter="url(#shadow)">
    <!-- Cake Base - Bottom Layer -->
    <path d="M25 65C25 70 35 75 50 75C65 75 75 70 75 65L75 60C75 65 65 70 50 70C35 70 25 65 25 60L25 65Z" fill="url(#cake-gradient)" />
    
    <!-- Cake Middle Layer -->
    <path d="M30 60C30 65 38 68 50 68C62 68 70 65 70 60L70 52C70 57 62 60 50 60C38 60 30 57 30 52L30 60Z" fill="#FFE9CF" />
    
    <!-- Cake Top Layer -->
    <ellipse cx="50" cy="52" rx="20" ry="8" fill="url(#cake-gradient)" />
    
    <!-- Frosting Layer -->
    <path d="M27 46C27 50 37 54 50 54C63 54 73 50 73 46C73 46 71 42 68 41C65 40 64 43 60 42C56 41 56 38 50 38C44 38 44 41 40 42C36 43 35 40 32 41C29 42 27 46 27 46Z" fill="url(#frosting-gradient)" />
    
    <!-- Decorative Frosting Drips -->
    <path d="M35 46C35 48 35 52 35 52" stroke="#FFFFFF" stroke-width="2" stroke-linecap="round" />
    <path d="M45 46C45 48 45 53 45 53" stroke="#FFFFFF" stroke-width="2" stroke-linecap="round" />
    <path d="M55 46C55 48 55 53 55 53" stroke="#FFFFFF" stroke-width="2" stroke-linecap="round" />
    <path d="M65 46C65 48 65 52 65 52" stroke="#FFFFFF" stroke-width="2" stroke-linecap="round" />
  </g>
  
  <!-- Candle and Flame -->
  <rect x="48" y="28" width="4" height="10" rx="1" fill="#FF5555" filter="url(#shadow)" />
  <path d="M50 28C48 25 52 25 50 28" fill="#FFDD55" filter="url(#shadow)" />
  <ellipse cx="50" cy="24" rx="2" ry="3" fill="#FFAA33" filter="url(#shadow)" />
  
  <!-- Cherry on Top -->
  <circle cx="40" cy="42" r="3" fill="#FF3B30" filter="url(#shadow)" />
  <circle cx="60" cy="42" r="3" fill="#FF3B30" filter="url(#shadow)" />
</svg>
